# xmcd
#
# Track frame offsets:
#	150
#	14722
#	26040
#	34391
#	49331
#	63242
#	76639
#	88205
#	101914
#	112228
#
# Disc length: 1725 seconds
# Revision: 0
# Processed by: cddbd v1.5.2PL0 Copyright (c) Steve Scherf et al.
# Submitted via: dBpowerAMP V12.0
#
DISCID=8a06bb0a
DTITLE=Waylon Jennings and Jessi Coulter - Leather and Lace [RCA] (L)
DYEAR=1981
DGENRE=Country
TTITLE0=You Never Can Tell (C'est la Vie)
TTITLE1=Rainy Seasons
TTITLE2=I'll Be Alright
TTITLE3=The Wild Side of Life
TTITLE4=Pastels and Harmony
TTITLE5=I Believe You Can
TTITLE6=What's Happened to Blue Eyes
TTITLE7=Storms Never Last
TTITLE8=I Ain't the One
TTITLE9=You're Not the Same Sweet Baby
EXTD=
EXTT0=
EXTT1=
EXTT2=
EXTT3=
EXTT4=
EXTT5=
EXTT6=
EXTT7=
EXTT8=
EXTT9=
PLAYORDER=
